# xmcd
#
# Track frame offsets: 
#        150
#        16244
#        33802
#        48871
#        69869
#        84890
#        100658
#        118743
#        135220
#        152096
#        169634
#        186472
#
# Disc length: 2739 seconds
#
# Revision: 0
# Processed by: cddbd v1.5.2PL0 Copyright (c) Steve Scherf et al.
# Submitted via: ExactAudioCopy v0.95a5
#
DISCID=830ab10c
DTITLE=Seth Walker - Time Can Change
DYEAR=2012
DGENRE=Blues
TTITLE0=Love Is Through With Me
TTITLE1=Stronger Than You Need To Be
TTITLE2=Found Myself Lost
TTITLE3=In The Meantime
TTITLE4=Before It Breaks
TTITLE5=I've Got A Thing For You
TTITLE6=Wait A Minute
TTITLE7=All This Love
TTITLE8=Rosalie
TTITLE9=Something's Come Over Me
TTITLE10=Whta Now
TTITLE11=More Days Like This
EXTD=
EXTT0=
EXTT1=
EXTT2=
EXTT3=
EXTT4=
EXTT5=
EXTT6=
EXTT7=
EXTT8=
EXTT9=
EXTT10=
EXTT11=
PLAYORDER=
